# xmcd CD database file
#
# Track frame offsets:
#	150
#	23604
#	45475
#	72816
#	99770
#	117242
#	137289
#	150734
#	172630
#	191175
#	214043
#	228572
#
# Disc length: 3272 seconds
#
# Revision: 0
# Processed by: cddbd v1.4PL0 Copyright (c) Steve Scherf et al.
# Submitted via: CDex 1.50beta10
#
DISCID=8d0cc60c
DTITLE=Long Distance Call Blues - Bluesville Blues
DYEAR=2003
DGENRE=Blues
TTITLE0=New Orleans Blues
TTITLE1=Drive In Delta
TTITLE2=In The Deep South
TTITLE3=A Brand New World
TTITLE4=I Am A Dreamer
TTITLE5=Blues From Moline
TTITLE6=Bluesville Blues
TTITLE7=Old Time Story
TTITLE8=Angels' Flight
TTITLE9=Requiem Blues
TTITLE10=Still Raining
TTITLE11=Guitar's Strain
EXTD=YEAR: 2003
EXTT0=
EXTT1=
EXTT2=
EXTT3=
EXTT4=
EXTT5=
EXTT6=
EXTT7=
EXTT8=
EXTT9=
EXTT10=
EXTT11=
PLAYORDER=
